<svg xmlns="http://www.w3.org/2000/svg" viewBox="0 0 128 128">
  <g fill="#000">
    <path d="M117.5 33.5l-50.5-29c-1.6-1-3.5-1.5-5.5-1.5s-3.9.5-5.5 1.5l-50.5 29C2.7 34.5 1 37.5 1 40.5v58c0 3 1.7 6 4.5 7l50.5 29c1.6 1 3.5 1.5 5.5 1.5s3.9-.5 5.5-1.5l50.5-29c2.8-1 4.5-4 4.5-7v-58c0-3-1.7-6-4.5-7.5zm-1.5 65c0 1.8-1 3.5-2.5 4.3l-50.5 29c-1.5.9-3.5.9-5 0l-50.5-29c-1.5-.9-2.5-2.5-2.5-4.3v-58c0-1.8 1-3.5 2.5-4.3l50.5-29c1.5-.9 3.5-.9 5 0l50.5 29c1.5.9 2.5 2.5 2.5 4.3v58z"/>
  </g>
  <g fill="#fff">
    <path d="M61.5 93c-17.5 0-31.5-14-31.5-31.5S44 30 61.5 30c10.5 0 20 5.5 25.5 14l-12 7c-3.5-5-9-8.5-15.5-8.5-10 0-18 8-18 18s8 18 18 18c6.5 0 12-3.5 15.5-8.5l12 7c-5.5 8.5-15 14-25.5 14z"/>
    <path d="M100 66h-3v-6h3.5l2-9h8l-2 9h6l2-9h8l-2 9h3v6h-3.5l-1.5 6h3.5v6h-4l-2 9h-8l2-9h-6l-2 9h-8l2-9h-3v-6h3.5l1.5-6zm11 0l-1.5 6h6l1.5-6h-6z"/>
  </g>
</svg>
