<?xml version="1.0" encoding="UTF-8"?>
<svg width="24" height="24" viewBox="0 0 24 24" xmlns="http://www.w3.org/2000/svg">
  <title>Fuse.js</title>
  <g transform="translate(0, 24) scale(0.0024, -0.0024)" fill="currentColor">
    <path d="M4537 8950 c-39 -5 -76 -19 -115 -43 -31 -19 -77 -41 -100 -48 -26 -7 -51 -23 -60 -38 -10 -13 -37 -44 -61 -67 -42 -40 -44 -45 -54 -127 -7 -60 -7 -170 1 -364 10 -251 14 -287 38 -373 44 -158 53 -216 64 -435 18 -359 27 -442 59 -545 37 -122 48 -217 61 -515 10 -257 6 -308 -31 -337 -46 -38 -113 -15 -204 72 -22 21 -59 49 -82 64 -23 14 -53 40 -65 57 -13 17 -39 39 -60 50 -20 10 -49 33 -65 52 -15 18 -49 45 -74 60 -25 14 -54 38 -63 51 -9 14 -34 35 -56 46 -38 19 -108 76 -219 176 -31 28 -70 59 -88 68 -17 8 -41 29 -53 46 -12 17 -38 39 -58 49 -21 11 -53 36 -72 56 -19 20 -48 44 -65 52 -29 15 -75 53 -205 170 -32 29 -76 61 -97 71 -21 11 -48 34 -61 51 -12 17 -41 40 -65 52 -23 12 -53 34 -65 50 -13 16 -41 38 -63 49 -21 11 -61 40 -89 65 -50 44 -64 50 -193 79 -91 21 -117 20 -236 -8 -98 -23 -102 -25 -160 -83 -34 -33 -67 -76 -76 -95 -8 -20 -30 -52 -48 -72 -21 -22 -41 -58 -52 -96 -13 -41 -31 -74 -56 -100 -27 -27 -44 -58 -58 -106 -14 -49 -31 -79 -59 -108 -28 -28 -45 -59 -56 -99 -10 -35 -30 -73 -50 -95 -41 -46 -51 -66 -61 -117 -3 -22 -20 -70 -36 -107 -39 -88 -39 -148 0 -236 16 -37 34 -86 40 -109 8 -30 22 -50 49 -70 20 -15 51 -42 67 -60 24 -27 47 -39 113 -57 47 -14 104 -38 135 -59 52 -36 93 -50 179 -62 34 -4 60 -17 95 -45 33 -28 63 -43 102 -50 99 -20 117 -27 164 -63 35 -26 67 -40 124 -52 111 -24 108 -23 154 -60 39 -33 54 -39 163 -64 27 -7 66 -25 86 -41 46 -36 67 -45 160 -65 55 -11 86 -24 118 -50 46 -36 74 -47 165 -65 37 -8 70 -22 90 -39 44 -39 61 -46 149 -65 60 -14 90 -27 135 -61 91 -68 130 -104 135 -123 13 -50 -39 -94 -132 -113 -30 -6 -84 -28 -120 -49 -66 -39 -108 -53 -191 -65 -32 -4 -63 -18 -99 -45 -35 -26 -71 -43 -109 -50 -102 -21 -126 -29 -183 -69 -41 -28 -73 -41 -110 -46 -87 -11 -124 -23 -177 -60 -35 -24 -77 -41 -136 -55 -87 -20 -114 -32 -173 -75 -21 -15 -60 -28 -108 -36 -56 -9 -92 -22 -147 -54 -50 -30 -96 -48 -150 -59 -84 -17 -107 -26 -150 -62 -15 -13 -47 -28 -70 -34 -101 -25 -120 -33 -167 -75 -27 -24 -60 -49 -72 -56 -51 -26 -69 -54 -103 -164 -40 -128 -43 -173 -15 -270 11 -38 24 -89 30 -113 7 -25 28 -62 54 -91 30 -34 47 -65 56 -101 8 -34 23 -63 45 -85 38 -38 58 -73 74 -130 6 -22 28 -61 49 -86 21 -26 47 -69 57 -95 10 -27 33 -68 52 -91 18 -23 40 -61 48 -84 20 -55 131 -164 177 -174 18 -4 62 -15 97 -26 88 -27 132 -24 260 15 92 28 119 41 155 74 25 23 60 47 78 55 19 8 45 28 59 45 14 16 45 42 68 57 24 14 56 41 72 59 16 19 58 47 93 64 36 17 72 42 81 55 8 13 37 36 63 50 26 14 57 39 70 56 12 17 41 40 65 52 23 12 55 37 71 56 15 18 53 47 85 62 31 16 67 41 81 56 14 15 45 37 70 50 25 13 61 40 80 60 19 20 49 42 66 50 17 7 49 31 71 53 21 22 61 51 89 65 27 14 63 40 79 57 17 18 49 40 71 50 23 10 51 32 63 49 13 17 41 41 64 53 23 11 56 35 72 52 34 36 112 92 147 105 38 14 86 -11 105 -56 31 -75 4 -549 -41 -698 -42 -139 -47 -176 -56 -415 -12 -300 -22 -385 -60 -520 -40 -141 -48 -213 -55 -490 -8 -300 -1 -358 53 -414 21 -23 48 -55 60 -72 14 -20 35 -35 64 -43 24 -7 66 -28 94 -47 29 -19 73 -38 103 -44 71 -13 891 -13 962 0 31 6 72 23 95 40 23 16 67 39 98 50 32 12 61 31 67 43 7 11 31 42 55 67 60 64 67 117 59 420 -7 277 -15 349 -55 490 -38 135 -48 220 -60 520 -9 239 -14 276 -56 415 -28 93 -44 240 -51 450 -5 180 -3 215 10 248 19 45 67 70 105 56 35 -13 113 -69 147 -105 17 -17 48 -40 70 -52 22 -11 50 -34 63 -52 13 -17 42 -40 65 -50 23 -10 56 -32 72 -50 17 -17 52 -43 79 -57 28 -14 68 -43 89 -65 22 -22 54 -46 71 -53 17 -8 47 -30 66 -50 19 -20 55 -47 80 -60 25 -13 56 -35 70 -50 14 -15 50 -40 81 -56 32 -15 70 -44 85 -62 16 -19 48 -44 71 -56 24 -12 53 -35 65 -52 13 -17 44 -42 70 -56 26 -14 55 -37 63 -50 9 -13 45 -38 81 -55 35 -17 77 -45 93 -64 16 -18 46 -44 68 -57 21 -14 52 -39 68 -57 17 -17 48 -41 70 -52 22 -11 58 -37 80 -57 33 -30 62 -43 154 -70 129 -38 159 -38 303 2 83 23 89 27 152 92 36 37 68 80 71 96 4 15 23 50 44 76 21 26 47 73 60 103 12 31 37 73 56 95 19 21 35 42 35 46 0 31 49 128 80 160 26 27 42 55 50 90 9 35 26 66 56 100 24 27 47 62 50 77 4 15 17 69 30 120 31 118 30 133 -7 259 -35 122 -48 144 -97 175 -20 12 -57 41 -84 65 -45 40 -64 48 -165 73 -23 6 -55 21 -70 34 -42 35 -65 45 -144 61 -49 10 -98 30 -146 59 -58 34 -90 46 -149 55 -82 12 -101 20 -154 62 -25 20 -62 34 -128 48 -70 15 -105 29 -140 54 -51 37 -91 52 -165 63 -31 4 -69 20 -106 45 -41 28 -83 44 -147 59 -60 14 -111 34 -155 61 -45 27 -86 43 -129 50 -73 12 -112 27 -159 63 -20 15 -64 32 -110 42 -119 26 -169 60 -157 107 6 26 122 144 161 164 13 7 63 22 110 33 68 16 96 28 127 55 29 24 57 37 97 45 99 19 127 29 172 65 34 26 65 39 134 55 69 16 100 29 134 55 45 36 79 48 164 61 33 4 64 18 94 41 54 41 71 49 145 63 31 6 72 22 90 35 59 43 102 62 163 74 33 7 70 14 81 16 12 3 45 23 74 44 42 32 67 42 124 52 74 12 111 27 161 65 17 12 70 34 119 47 76 22 94 31 130 69 23 23 54 51 68 60 15 10 29 32 33 50 4 18 22 73 41 122 38 97 41 132 18 191 -9 22 -29 82 -44 134 -22 71 -37 103 -64 130 -23 24 -40 56 -51 96 -12 43 -29 72 -57 101 -28 29 -45 60 -59 107 -14 46 -31 78 -57 105 -24 25 -44 60 -56 98 -10 33 -33 75 -52 96 -18 21 -40 54 -48 73 -9 20 -43 63 -76 97 -60 59 -63 61 -161 84 -123 29 -140 29 -258 4 -108 -24 -120 -29 -181 -83 -25 -21 -61 -47 -80 -57 -19 -10 -48 -32 -65 -50 -16 -18 -46 -40 -67 -51 -20 -10 -49 -34 -65 -52 -15 -19 -43 -42 -62 -52 -19 -10 -58 -39 -85 -65 -28 -26 -71 -60 -96 -77 -25 -17 -54 -41 -65 -53 -11 -12 -37 -31 -57 -41 -21 -11 -48 -33 -60 -50 -13 -17 -39 -39 -59 -50 -20 -10 -49 -33 -64 -51 -15 -18 -42 -42 -60 -53 -17 -11 -56 -41 -86 -67 -147 -129 -187 -162 -220 -179 -21 -10 -48 -32 -61 -48 -12 -16 -41 -39 -63 -51 -22 -12 -53 -38 -68 -56 -16 -19 -46 -43 -66 -54 -21 -10 -45 -30 -55 -44 -9 -15 -36 -38 -59 -53 -23 -15 -67 -50 -97 -77 -97 -87 -148 -105 -197 -71 -39 28 -44 74 -33 336 12 281 23 384 51 489 11 41 27 100 35 130 9 34 18 148 24 295 13 309 24 413 60 538 43 148 50 221 53 532 2 303 -3 339 -49 369 -13 9 -36 34 -50 56 -19 28 -40 44 -73 56 -25 10 -71 33 -103 52 -41 24 -75 36 -125 43 -81 10 -833 10 -916 -1z"/>
  </g>
</svg>