<svg xmlns="http://www.w3.org/2000/svg" width="600.00006" height="1096.436" viewBox="-40 -40 680.00006 1176.436" preserveAspectRatio="xMidYMid meet">
  <g transform="matrix(17.554527,0,0,17.554527,-1.1536028,-5.2173915)" fill-rule="evenodd">
    <g transform="translate(-667,-1479)" fill="#ef5862">
      <g transform="translate(190,1479)">
        <g transform="translate(217)">
          <path d="m 284.86163,58.14167 0.0619,0.128005 1.0819,2.555687 c 0.29957,0.706617 -0.0302,1.521115 -0.73492,1.819943 -0.6617,0.281164 -1.41812,0.0086 -1.75603,-0.607917 l -0.0618,-0.127827 -1.08298,-2.556766 c -0.29849,-0.706617 0.0312,-1.521115 0.73599,-1.819943 0.6607,-0.280152 1.418,-0.0085 1.75603,0.608818 z m 4.43859,-1.729372 c 0.29849,0.705538 -0.0302,1.521114 -0.736,1.819943 -0.70474,0.298828 -1.51832,-0.03021 -1.81788,-0.736824 -0.2985,-0.705538 0.0312,-1.521114 0.73599,-1.819943 0.70474,-0.298829 1.51939,0.03021 1.81789,0.736824 z M 275.98567,12.891496 c 4.49138,4.999179 9.13146,11.473084 12.48707,19.400139 v 0 l 4.75323,11.229274 0.78233,1.846913 c 0.64116,1.512484 -0.0657,3.257989 -1.57543,3.899878 -1.51186,0.64081 -3.25539,-0.06581 -3.89656,-1.578291 v 0 l -0.54094,-1.278383 c -0.2985,-0.706617 -1.11207,-1.035652 -1.81789,-0.736823 -0.70474,0.299907 -1.03448,1.114405 -0.73492,1.821021 v 0 l 1.37608,3.250438 0.78879,1.862016 c 0.2985,0.705538 -0.0312,1.520036 -0.73599,1.818864 -0.70474,0.299908 -1.51939,-0.03021 -1.81788,-0.735744 v 0 l -0.77263,-1.825337 c -0.21337,-0.503802 -0.79526,-0.738981 -1.2985,-0.525378 -0.50323,0.212525 -0.73814,0.795079 -0.52478,1.298881 v 0 l 0.77263,1.826415 c 0.29849,0.705538 -0.0302,1.520036 -0.73599,1.818865 -0.70474,0.298828 -1.51832,-0.03021 -1.81789,-0.736824 v 0 l -0.78772,-1.860937 -1.37607,-3.251517 c -0.29957,-0.705538 -1.11315,-1.035652 -1.81789,-0.735744 -0.70582,0.298828 -1.03448,1.114405 -0.73599,1.819943 v 0 l 0.54095,1.278383 c 0.64116,1.512483 -0.0647,3.257989 -1.57543,3.898799 -1.51186,0.641888 -3.25539,-0.06581 -3.89548,-1.577212 v 0 l -0.78233,-1.846913 -4.75431,-11.229275 c -3.3556,-7.927054 -4.77694,-15.765647 -5.24138,-22.474731 v 0 z m 3.00646,22.162957 c -0.57543,-1.360373 -2.14547,-1.996867 -3.50538,-1.419707 -1.35992,0.57716 -1.99462,2.1479 -1.41811,3.509351 0.57543,1.36253 2.14548,1.996867 3.50539,1.419706 1.35991,-0.576081 1.99569,-2.147899 1.4181,-3.50935 z m -2.8653,-6.769498 c -0.57651,-1.361451 -2.14655,-1.997945 -3.50646,-1.419706 -1.35884,0.57716 -1.99462,2.147899 -1.41811,3.50935 0.57651,1.361451 2.14548,1.996867 3.50539,1.420786 1.35991,-0.57716 1.99461,-2.148979 1.41918,-3.51043 z m -2.86638,-6.769497 c -0.57651,-1.361451 -2.14655,-1.997946 -3.50539,-1.420785 -1.36099,0.57716 -1.99569,2.147899 -1.41918,3.510429 0.57651,1.361451 2.14548,1.996867 3.50647,1.420785 1.35883,-0.578239 1.99461,-2.150057 1.4181,-3.510429 z M 261.37295,0.2972106 c 0,0 6.03069,3.597389 12.85682,10.7045734 l 0.3156,0.330516 -14.41056,6.114663 C 259.71132,7.3504334 261.37295,0.2972106 261.37295,0.2972106 Z"/>
        </g>
      </g>
    </g>
  </g>
</svg>
