<?xml version="1.0" encoding="UTF-8"?>
<svg width="24" height="24" viewBox="0 0 24 24" xmlns="http://www.w3.org/2000/svg">
  <title>Neo4j</title>
  <!-- Neo4j graph database logo - traced from official logo (inverted) -->
  <g transform="translate(0, 24) scale(0.003, -0.003)" fill="currentColor">
    <path d="M1690 7240 c0 -5 -13 -10 -30 -10 -16 0 -30 -4 -30 -10 0 -5 -18 -10
-40 -10 -22 0 -40 -4 -40 -10 0 -5 -9 -10 -20 -10 -11 0 -20 -4 -20 -9 0 -5
-13 -11 -29 -14 -16 -3 -36 -13 -44 -22 -9 -8 -18 -15 -22 -15 -4 0 -13 -7
-21 -15 -9 -8 -25 -15 -37 -15 -18 0 -19 -2 -7 -10 13 -8 12 -10 -3 -10 -20 0
-167 -143 -167 -163 0 -7 -9 -19 -20 -27 -11 -8 -20 -21 -20 -30 0 -9 -9 -22
-20 -30 -12 -8 -20 -26 -20 -42 0 -15 -4 -28 -10 -28 -5 0 -10 -9 -10 -20 0
-11 -4 -20 -10 -20 -5 0 -10 -11 -10 -25 0 -14 -4 -25 -10 -25 -5 0 -10 -18
-10 -40 0 -22 -4 -40 -10 -40 -6 0 -10 -27 -10 -60 0 -33 -4 -60 -10 -60 -6 0
-10 -27 -10 -60 0 -33 4 -60 10 -60 6 0 10 -30 10 -70 0 -40 4 -70 10 -70 6 0
10 -18 10 -40 0 -22 5 -40 10 -40 6 0 10 -9 10 -20 0 -11 5 -20 10 -20 6 0 10
-7 10 -15 0 -8 5 -15 10 -15 6 0 10 -11 10 -25 0 -27 40 -75 62 -75 7 0 35
-30 62 -66 152 -202 402 -324 661 -324 99 0 213 20 290 50 206 80 376 236 464
425 13 28 27 57 31 65 4 8 13 40 20 70 7 30 16 68 21 84 13 41 11 237 -2 293
-25 104 -58 194 -95 258 -66 113 -67 117 -55 124 7 5 5 14 -9 28 -14 15 -16
23 -7 26 7 3 4 6 -6 6 -25 1 -51 28 -34 34 6 3 1 6 -13 6 -20 1 -22 3 -10 11
12 8 11 10 -5 10 -11 0 -27 9 -35 20 -8 11 -22 20 -32 20 -10 0 -18 4 -18 10
0 5 -12 13 -27 16 -15 4 -34 14 -42 21 -7 8 -26 17 -42 20 -16 3 -29 9 -29 14
0 5 -9 9 -20 9 -11 0 -20 5 -20 10 0 6 -16 10 -35 10 -19 0 -35 5 -35 10 0 6
-13 10 -30 10 -16 0 -30 5 -30 10 0 6 -72 10 -195 10 -123 0 -195 -4 -195 -10z"/>
    <path d="M3010 6799 c-78 -35 -113 -79 -141 -176 -24 -84 28 -193 116 -243
133 -76 298 -9 340 138 15 49 15 64 4 117 -11 51 -20 67 -63 110 -76 76 -166
95 -256 54z"/>
    <path d="M3570 6587 c-113 -61 -159 -200 -104 -310 88 -175 341 -176 423 -1
49 103 16 228 -75 294 -44 31 -57 35 -124 38 -64 3 -82 0 -120 -21z"/>
    <path d="M5111 6443 c-1 -8 -53 -11 -188 -10 -120 1 -212 -3 -253 -11 -36 -7
-90 -18 -120 -24 -443 -86 -884 -455 -1054 -883 -16 -38 -32 -79 -37 -90 -14
-33 -40 -135 -54 -215 -17 -99 -36 -294 -30 -311 2 -8 9 -66 14 -129 37 -429
283 -838 653 -1085 137 -92 290 -165 408 -195 19 -5 53 -14 75 -20 114 -32
424 -46 570 -27 360 48 731 260 955 547 37 47 64 72 83 76 15 4 27 13 27 20 0
8 10 14 23 15 12 0 16 3 10 6 -10 3 -9 8 2 20 8 8 15 22 15 32 0 9 9 23 20 31
11 8 20 26 20 40 0 14 9 32 20 40 14 10 20 26 20 50 0 24 6 40 20 50 14 10 20
26 20 52 0 21 5 38 10 38 6 0 10 11 10 25 0 14 5 25 10 25 6 0 10 23 10 50 0
28 5 50 10 50 6 0 10 23 10 50 0 28 5 50 10 50 6 0 10 82 10 225 0 143 -4 225
-10 225 -5 0 -10 18 -10 40 0 22 -4 40 -10 40 -6 0 -10 27 -10 60 0 33 -4 60
-10 60 -5 0 -10 9 -10 20 0 11 -4 20 -10 20 -5 0 -10 18 -10 40 0 22 -4 40
-10 40 -5 0 -10 7 -10 15 0 8 -4 15 -10 15 -5 0 -10 14 -10 30 0 17 -4 30 -10
30 -5 0 -10 7 -10 15 0 8 -4 15 -10 15 -5 0 -10 10 -10 23 0 12 -9 29 -20 37
-12 8 -20 26 -20 41 0 15 -7 34 -15 43 -8 8 -15 20 -15 26 0 7 -13 25 -30 40
-16 15 -30 35 -30 44 0 9 -8 16 -20 16 -13 0 -20 7 -20 19 0 11 -9 23 -20 26
-11 3 -20 12 -20 20 0 8 -9 17 -20 20 -11 3 -20 15 -20 25 0 10 -9 22 -20 25
-11 3 -20 13 -20 21 0 8 -7 14 -16 14 -8 0 -33 18 -54 40 -21 22 -44 40 -50
40 -6 0 -18 6 -26 14 -11 11 -11 16 -1 19 8 4 7 6 -3 6 -9 1 -22 10 -30 21 -8
11 -24 20 -35 20 -16 0 -17 2 -5 10 11 7 6 10 -20 10 -26 0 -31 3 -20 10 12 8
11 10 -7 10 -13 0 -23 5 -23 10 0 6 -9 10 -20 10 -11 0 -20 5 -20 10 0 6 -10
10 -22 10 -19 0 -20 2 -8 10 12 7 8 10 -15 10 -16 0 -41 7 -55 15 -14 8 -37
14 -52 15 -16 0 -28 5 -28 10 0 6 -9 10 -20 10 -11 0 -20 5 -20 10 0 6 -16 10
-35 10 -19 0 -35 5 -35 10 0 6 -13 10 -30 10 -16 0 -30 5 -30 10 0 6 -27 10
-60 10 -33 0 -60 4 -60 10 0 6 -9 10 -19 10 -11 0 -22 6 -24 13 -4 8 -6 8 -6
0z"/>
    <path d="M1514 5392 c-54 -30 -71 -46 -103 -96 -26 -42 -31 -59 -31 -113 0
-139 94 -235 230 -236 124 -1 219 82 236 205 13 90 -42 192 -126 234 -56 29
-159 32 -206 6z"/>
    <path d="M1564 4796 c-41 -18 -111 -82 -130 -117 -16 -32 -19 -154 -4 -193 15
-40 81 -107 125 -127 150 -69 327 48 327 215 -1 99 -56 183 -149 221 -44 19
-127 19 -169 1z"/>
    <path d="M1715 4163 c-35 -7 -98 -57 -129 -101 -25 -35 -31 -55 -34 -110 -6
-106 34 -177 128 -226 65 -34 134 -35 204 -2 60 28 75 43 110 110 79 149 -39
338 -209 334 -27 0 -59 -3 -70 -5z"/>
    <path d="M2012 3587 c-46 -14 -121 -84 -143 -132 -53 -115 7 -259 130 -311 75
-33 197 -10 247 47 59 67 68 89 68 169 0 65 -4 84 -27 122 -54 93 -173 138
-275 105z"/>
    <path d="M4760 3255 c-81 -26 -147 -111 -158 -201 -10 -90 58 -203 144 -239
46 -19 131 -19 177 0 48 20 104 70 121 109 33 74 39 106 25 154 -39 143 -174
221 -309 177z"/>
    <path d="M2750 3174 c-59 -5 -156 -23 -200 -36 -115 -35 -122 -38 -220 -86
-148 -72 -254 -151 -365 -270 -162 -176 -274 -402 -312 -629 -3 -20 -12 -35
-24 -38 -16 -5 -19 -16 -19 -61 0 -30 -4 -54 -10 -54 -6 0 -10 -27 -10 -60 0
-33 4 -60 10 -60 6 0 10 -33 10 -80 0 -47 4 -80 10 -80 6 0 10 -11 10 -25 0
-14 5 -25 10 -25 6 0 10 -27 10 -60 0 -33 4 -60 10 -60 6 0 10 -9 10 -20 0
-11 5 -20 10 -20 6 0 10 -13 10 -30 0 -16 5 -30 10 -30 6 0 10 -9 10 -20 0
-11 5 -20 10 -20 6 0 10 -9 10 -20 0 -11 6 -20 13 -20 9 0 9 -2 0 -8 -9 -6 -7
-12 7 -22 11 -8 20 -22 20 -32 0 -10 4 -18 9 -18 5 0 12 -11 15 -25 4 -14 11
-25 16 -25 6 0 10 -7 10 -15 0 -8 5 -15 10 -15 6 0 10 -5 10 -11 0 -6 18 -28
41 -50 22 -21 36 -39 30 -39 -7 0 9 -20 33 -45 25 -25 53 -45 63 -45 15 0 16
-2 3 -10 -12 -8 -10 -10 10 -10 20 0 22 -2 10 -10 -13 -8 -12 -10 3 -10 25 0
52 -26 34 -33 -6 -3 4 -6 23 -6 26 -1 31 -4 20 -11 -12 -8 -10 -10 10 -10 20
0 22 -2 10 -10 -13 -8 -13 -10 2 -10 24 0 90 -31 108 -51 8 -9 27 -19 42 -22
15 -4 33 -14 42 -22 8 -8 24 -15 36 -15 11 0 38 -9 60 -20 22 -11 56 -20 77
-20 28 0 34 -3 23 -10 -11 -7 -4 -10 28 -10 23 0 42 -4 42 -10 0 -5 16 -10 35
-10 19 0 35 -4 35 -10 0 -6 79 -10 218 -9 124 1 206 4 192 9 -18 6 -8 8 40 9
46 1 61 4 50 11 -11 7 1 10 40 10 39 0 51 3 40 10 -11 7 -4 10 28 10 23 0 42
5 42 10 0 6 9 10 20 10 11 0 20 5 20 10 0 6 11 10 25 10 14 0 25 5 25 10 0 6
9 10 20 10 11 0 20 5 20 10 0 6 8 10 18 10 11 0 29 9 42 20 13 11 31 20 42 20
10 0 18 4 18 10 0 5 12 13 28 16 15 4 34 15 43 26 9 10 25 18 35 18 16 0 17 2
4 10 -12 8 -10 10 10 10 20 0 22 2 10 10 -13 8 -12 10 3 10 16 0 55 36 137
127 11 12 20 29 20 37 0 8 9 18 20 21 11 3 20 12 20 18 0 7 9 19 20 27 11 8
20 22 20 32 0 10 5 18 10 18 6 0 10 6 10 13 0 7 9 19 20 27 11 8 20 22 20 32
0 10 5 18 10 18 6 0 10 9 10 20 0 11 5 20 10 20 6 0 10 13 10 28 0 16 8 34 20
42 14 10 20 26 20 52 0 21 5 38 10 38 14 0 12 38 -2 42 -10 4 -10 20 1 79 36
204 37 334 5 508 -65 351 -292 664 -612 844 -177 99 -337 143 -547 150 -71 3
-150 3 -175 1z"/>
    <path d="M4356 2780 c-84 -33 -140 -104 -152 -193 -22 -160 149 -303 300 -252
107 37 166 116 166 224 0 115 -60 193 -175 228 -54 17 -81 16 -139 -7z"/>
  </g>
</svg>
